<?xml version="1.0" standalone="no"?>
<!DOCTYPE svg PUBLIC "-//W3C//DTD SVG 20010904//EN"
 "http://www.w3.org/TR/2001/REC-SVG-20010904/DTD/svg10.dtd">
<svg version="1.0" xmlns="http://www.w3.org/2000/svg"
 width="418.000000pt" height="418.000000pt" viewBox="0 0 418.000000 418.000000"
 preserveAspectRatio="xMidYMid meet">
<metadata>
Created by potrace 1.14, written by Peter Selinger 2001-2017
</metadata>
<g transform="translate(0.000000,418.000000) scale(0.100000,-0.100000)"
fill="#000000" stroke="none">
<path d="M1077 4144 c-1 -2 -23 -5 -47 -8 -70 -9 -196 -43 -225 -62 -14 -9
-25 -13 -25 -10 0 6 -59 -30 -105 -64 -11 -8 -54 -50 -97 -92 -141 -143 -220
-349 -252 -658 -3 -25 -9 -76 -13 -115 -9 -83 -10 -367 -1 -445 21 -183 41
-264 89 -346 54 -96 151 -122 262 -71 l54 25 64 -45 c35 -24 92 -60 127 -80
54 -30 62 -38 56 -57 -13 -38 -11 -108 4 -170 15 -60 56 -136 73 -136 17 0 9
-22 -22 -61 -38 -48 -106 -181 -141 -274 -68 -183 -88 -232 -102 -260 -9 -16
-16 -33 -16 -37 0 -18 -95 -171 -201 -323 -164 -236 -158 -230 -208 -227 -68
4 -116 -14 -154 -59 -19 -22 -37 -51 -39 -64 -8 -39 27 -93 118 -181 179 -174
226 -202 332 -195 35 2 94 67 142 156 23 44 57 102 76 130 49 75 184 205 212
205 6 0 12 4 12 9 0 5 14 14 30 20 l31 10 -31 -57 c-48 -89 -53 -93 -111 -99
-80 -8 -138 -65 -139 -138 0 -50 49 -104 205 -225 99 -77 144 -100 205 -107
82 -9 134 29 206 152 85 146 260 400 297 432 l36 32 233 0 c231 1 261 2 368
16 72 9 86 12 140 25 25 7 52 13 60 15 42 10 164 57 235 90 135 63 163 74 186
70 41 -8 66 -33 72 -70 8 -46 53 -125 72 -125 8 0 15 -4 15 -10 0 -8 57 -24
85 -24 69 1 116 48 160 161 l28 72 59 -45 c53 -42 63 -54 59 -77 -1 -5 -4 -32
-7 -61 -15 -138 98 -226 214 -167 43 22 123 96 175 162 78 98 117 241 84 306
-20 38 -84 95 -179 159 -64 42 -294 222 -339 264 -9 8 -49 67 -89 130 -40 63
-82 125 -94 138 -20 23 -21 32 -23 315 -2 259 -4 301 -22 372 -32 123 -79 232
-113 260 -34 29 -50 31 -72 9 -13 -12 -16 -42 -15 -167 0 -159 -1 -166 -26
-256 -42 -148 -92 -207 -190 -226 -44 -9 -44 -9 -126 -19 -31 -4 -67 -9 -80
-11 -87 -17 -252 -20 -275 -6 -1 1 4 25 11 55 14 59 10 152 -9 207 -12 35 -12
37 16 53 65 39 232 170 296 233 143 140 193 240 197 398 6 190 -48 361 -170
551 -183 283 -515 544 -762 598 -37 8 -88 22 -113 31 -128 47 -325 68 -520 55
-25 -1 -56 1 -70 4 -24 7 -168 15 -173 10z"/>
</g>
</svg>
